<svg xmlns:dc="http://purl.org/dc/elements/1.1/" xmlns:cc="http://creativecommons.org/ns#" xmlns:rdf="http://www.w3.org/1999/02/22-rdf-syntax-ns#" xmlns:svg="http://www.w3.org/2000/svg" xmlns="http://www.w3.org/2000/svg" xmlns:sodipodi="http://sodipodi.sourceforge.net/DTD/sodipodi-0.dtd" xmlns:inkscape="http://www.inkscape.org/namespaces/inkscape" viewBox="0 0 647.47054 844.3337124999999" version="1.1" x="0px" y="0px"><g transform="translate(1086.8008,826.09694)"><path style="" d="m -787.84013,-825.67348 c -2.855,-1.5516 -6.096,1.4465 -4.606,4.3636 l 37.94,77.0926 c 0.31,0.6206 0.775,1.0848 1.334,1.3331 l 74.911,42.1827 c 2.854,1.6136 6.095,-1.3256 4.605,-4.2426 l -38.061,-77.0926 c -0.31,-0.6205 -0.716,-1.2064 -1.213,-1.4547 l -74.91,-42.1821 z m 2.666,30.0607 -10.788,10.182 c -11.668,10.985 -3.006,38.904 19.274,62.4255 22.157,23.3973 49.666,33.4719 61.334,22.425 l 10.182,-9.6973 -50.304,-28.2431 c -0.744,-0.4344 -1.38,-1.0172 -1.939,-1.5758 -0.559,-0.5586 -1.023,-1.2567 -1.333,-1.9393 l -26.426,-53.577 z m 295.28,21.3339 -67.274,32.2431 c -0.497,0.2482 -0.964,0.6535 -1.213,1.212 l -37.456,64.6076 c -1.426,2.4204 1.152,5.2412 3.759,3.9999 l 67.274,-32.243 c 0.558,-0.2483 1.023,-0.6535 1.333,-1.212 l 37.334,-64.4861 c 1.428,-2.4824 -1.152,-5.3628 -3.757,-4.1215 z m -479.404,2.5457 c -0.621,-0.062 -1.262,0 -1.697,0.2421 l -65.57697,35.6372 c -2.483,1.3654 -1.701,5.0853 1.091,5.3335 l 74.18297,7.6368 c 0.62,0.062 1.262,0 1.697,-0.2427 l 65.578,-35.6371 c 2.481,-1.3033 1.58,-5.0853 -1.213,-5.3336 l -74.062,-7.6362 z m 481.95,10.7876 c -0.869,0.8069 -0.929,2.0407 -0.122,2.9096 l 19.758,21.4547 c 0.125,0.1249 0.298,0.3017 0.484,0.3636 -0.806,2.4827 0.241,6.053 2.909,8.9699 3.476,3.7237 8.187,4.839 10.546,2.6667 2.359,-2.2342 1.412,-6.9427 -1.939,-10.6664 -2.669,-2.917 -6.124,-4.1954 -8.607,-3.6368 -0.125,-0.1863 -0.118,-0.3607 -0.242,-0.4848 l -19.879,-21.4549 c -0.807,-0.8688 -2.103,-0.9283 -2.91,-0.1215 z m -412.494,9.4552 c -1.179,0.1862 -1.946,1.3071 -1.697,2.4241 l 5.697,28.6068 c 0.06,0.1861 0.121,0.4194 0.242,0.6058 -1.986,1.6136 -2.867,5.1219 -2.06,8.9702 0.993,4.9024 4.287,8.4399 7.516,7.7579 3.164,-0.6206 4.87,-5.0959 3.878,-10.0608 -0.808,-3.848 -3.035,-6.709 -5.454,-7.5158 l 0,-0.6056 -5.698,-28.6068 c -0.186,-1.1792 -1.306,-1.8241 -2.424,-1.5758 z m 404.978,4.6063 -25.092,43.3948 c -0.371,0.6206 -0.837,1.2623 -1.334,1.6967 -0.558,0.4965 -1.137,0.9019 -1.696,1.2123 l -46.91,22.3036 8.727,9.4545 c 9.434,10.1782 33.822,2.9312 54.426,-16.1218 20.604,-19.053 29.738,-42.6681 20.243,-52.9704 l -8.364,-8.9697 z m -418.797,3.5151 -44.001,23.8789 c -0.62,0.3723 -1.256,0.5411 -1.939,0.7275 -0.683,0.1249 -1.316,0.183 -2.061,0.1215 l -51.63597,-5.3336 2.545,12.4849 c 2.731,13.6536 27.17097,20.3117 54.78897,14.7882 27.369,-5.4616 47.459,-21.0731 44.728,-34.7888 l -2.425,-11.8786 z m 221.459,41.4554 -24.363,23.0305 -0.485,0.6064 c -2.856,-0.8689 -6.894,0.4122 -10.182,3.5151 -4.22,3.972 -5.455,9.3907 -2.91,12.1214 2.544,2.6687 8.024,1.5478 12.244,-2.4241 3.288,-3.103 4.744,-7.0851 3.999,-9.9398 0.187,-0.1249 0.42,-0.1775 0.606,-0.3638 l 24.364,-23.0305 c 0.993,-0.9309 1.052,-2.401 0.121,-3.3942 -0.93,-0.993 -2.401,-1.0519 -3.394,-0.1215 z m -377.70397,65.3344 c -3.406,-0.8298 -7.167,-0.3203 -10.425,1.6969 -6.455,3.8477 -8.332,12.3371 -4.484,18.6675 l 79.274,131.0324 0,247.5206 c 0,10.3644 8.36397,18.788 18.66697,18.788 10.364,0 18.789,-8.4236 18.789,-18.788 l 0,-22.7884 0,-102.4264 12.121,0 0,125.3358 c 0,10.3024 8.427,18.667 18.667,18.667 10.24,0 18.546,-8.3646 18.546,-18.667 l 0,-0.4847 c 0,-0.2482 0.121,-0.3581 0.121,-0.6063 l 0,-231.2772 31.395,25.3337 10.425,67.7591 c 1.054,6.5786 7.056,11.1158 13.697,10.0608 6.577,-0.993 11.236,-7.178 10.181,-13.8187 l -11.757,-76.9709 -67.638,-54.5468 c -0.497,-1.117 -0.848,-1.8185 -0.848,-1.8185 l -57.699,0 -70.54697,-116.3658 c -1.985,-3.2274 -5.079,-5.4726 -8.485,-6.3031 z m 613.83097,0 c -3.406,0.8305 -6.59,2.9859 -8.607,6.182 l -70.547,116.4869 -57.577,0 c 0,0 -0.411,0.6425 -0.969,1.6974 l -67.638,54.6679 -11.758,76.9709 c -1.055,6.5786 3.604,12.8257 10.182,13.8187 6.578,1.055 12.825,-3.4822 13.818,-10.0608 l 10.425,-67.7591 31.273,-25.3337 0,231.2772 c 0,0.2482 0.122,0.3581 0.122,0.6063 l 0,0.4847 c 0,10.3024 8.365,18.667 18.667,18.667 10.24,0 18.545,-8.3646 18.545,-18.667 l 0,-125.3358 12.121,0 0,102.4264 0,22.7884 c 0,10.3644 8.425,18.788 18.789,18.788 10.364,0 18.667,-8.4236 18.667,-18.788 l 0,-247.5206 79.274,-131.0324 c 3.786,-6.3923 1.97,-14.8198 -4.485,-18.6675 -3.227,-1.9861 -6.897,-2.5267 -10.303,-1.6969 z m -429.101,12.9697 c -3.855,-0.9459 -8.095,-0.4159 -11.757,1.8185 -7.323,4.2821 -9.373,14.0166 -5.091,21.0916 l 89.699,148.4874 0,254.551 0,24.7272 0,1.0911 c 0,11.7297 9.541,21.2127 21.333,21.2127 11.668,0 21.213,-9.421 21.213,-21.2127 l 0,-25.8183 -0.122,0 0,-116.124 13.819,0 0,118.3054 0,22.5458 0,1.3338 c 0,11.6676 9.424,20.97 21.091,20.97 11.667,0 21.092,-9.3024 21.092,-20.97 l 0,-0.6064 c 0,-0.1861 0.121,-0.4791 0.121,-0.7274 l 0,-279.2782 89.699,-148.4874 c 4.53,-7.075 2.17,-16.8095 -5.092,-21.0916 -7.322,-4.4685 -16.803,-2.1108 -21.333,5.2125 l -79.88,131.7597 -65.335,0 -79.88,-131.7597 c -2.266,-3.6616 -5.721,-6.0845 -9.577,-7.031 z m 321.098,17.9402 a 39.65752,39.65752 0 0 0 -39.758,39.6371 39.65752,39.65752 0 0 0 39.758,39.7581 39.65752,39.65752 0 0 0 39.637,-39.7581 39.65752,39.65752 0 0 0 -39.637,-39.6371 z m -397.947,0.1214 a 39.65752,39.65752 0 0 0 -39.75897,39.6371 39.65752,39.65752 0 0 0 39.75897,39.637 39.65752,39.65752 0 0 0 39.637,-39.637 39.65752,39.65752 0 0 0 -39.637,-39.6371 z m 199.034,16.8485 c -24.948,0 -45.092,20.3296 -45.092,45.0923 0.06,24.8248 20.144,44.7279 45.092,44.7279 24.762,0 44.85,-19.9031 44.85,-44.7279 0,-24.7006 -20.025,-45.0923 -44.85,-45.0923 z" fill="#000000"/></g><text x="0" y="690.46697" fill="#000000" font-size="5px" font-weight="bold" font-family="'Helvetica Neue', Helvetica, Arial-Unicode, Arial, Sans-serif">Created by Hopkins</text><text x="0" y="695.46697" fill="#000000" font-size="5px" font-weight="bold" font-family="'Helvetica Neue', Helvetica, Arial-Unicode, Arial, Sans-serif">from the Noun Project</text></svg>