<svg width="546" height="134" viewBox="0 0 546 134" fill="none" xmlns="http://www.w3.org/2000/svg">
<path d="M546 44C546 50.6274 540.627 56 534 56C527.373 56 522 50.6274 522 44C522 37.3726 527.373 32 534 32C540.627 32 546 37.3726 546 44ZM527.917 44C527.917 47.3597 530.64 50.0833 534 50.0833C537.36 50.0833 540.083 47.3597 540.083 44C540.083 40.6403 537.36 37.9167 534 37.9167C530.64 37.9167 527.917 40.6403 527.917 44Z" fill="#ED1C24"/>
<path d="M544 95C544 101.627 538.627 107 532 107C525.373 107 520 101.627 520 95C520 88.3726 525.373 83 532 83C538.627 83 544 88.3726 544 95ZM525.917 95C525.917 98.3597 528.64 101.083 532 101.083C535.36 101.083 538.083 98.3597 538.083 95C538.083 91.6403 535.36 88.9167 532 88.9167C528.64 88.9167 525.917 91.6403 525.917 95Z" fill="#ED1C24"/>
<path d="M29.088 89.24V113H22.122V101.192L22.41 96.296L21.312 102.002L18.522 110.696H11.7L8.928 102.002L7.83 96.296L8.118 101.192V113H1.152V89.24H11.124L14.724 103.154L15.12 105.512L15.516 103.154L19.116 89.24H29.088ZM42.0078 94.658C41.3478 94.658 40.7598 94.838 40.2438 95.198C39.7398 95.558 39.3078 95.984 38.9478 96.476C38.5998 96.956 38.3298 97.4 38.1378 97.808C37.9458 98.204 37.8378 98.438 37.8138 98.51L31.9098 95.774C31.9338 95.594 32.0478 95.246 32.2518 94.73C32.4558 94.202 32.7858 93.608 33.2418 92.948C33.6978 92.276 34.3038 91.628 35.0598 91.004C35.8278 90.368 36.7818 89.846 37.9218 89.438C39.0618 89.018 40.4238 88.808 42.0078 88.808C43.9518 88.808 45.5358 89.09 46.7598 89.654C47.9838 90.218 48.9258 90.932 49.5858 91.796C50.2578 92.648 50.7198 93.53 50.9718 94.442C51.2358 95.354 51.3678 96.152 51.3678 96.836C51.3678 97.88 51.1818 98.858 50.8098 99.77C50.4378 100.67 49.9578 101.498 49.3698 102.254C48.7818 102.998 48.1518 103.664 47.4798 104.252C46.8198 104.828 46.1898 105.32 45.5898 105.728C44.9898 106.136 44.4918 106.448 44.0958 106.664C43.6998 106.868 43.4838 106.976 43.4478 106.988H51.1698V113H33.0618V107.528C33.1098 107.504 33.4098 107.312 33.9618 106.952C34.5258 106.592 35.2338 106.118 36.0858 105.53C36.9498 104.93 37.8558 104.258 38.8038 103.514C39.7638 102.77 40.6638 101.996 41.5038 101.192C42.3558 100.388 43.0458 99.602 43.5738 98.834C44.1138 98.066 44.3838 97.364 44.3838 96.728C44.3838 95.984 44.1738 95.456 43.7538 95.144C43.3458 94.82 42.7638 94.658 42.0078 94.658Z" fill="#ED1C24"/>
<path d="M91.544 95.72C93.784 95.72 95.944 95.368 98.024 94.664C100.136 93.96 101.768 93.256 102.92 92.552L110.84 108.296C109.304 109.576 106.696 110.872 103.016 112.184C99.336 113.496 95 114.152 90.008 114.152C85.336 114.152 80.92 113.352 76.76 111.752C72.6 110.12 68.904 107.832 65.672 104.888C62.472 101.944 59.96 98.488 58.136 94.52C56.312 90.52 55.4 86.152 55.4 81.416C55.4 76.68 56.312 72.312 58.136 68.312C59.96 64.28 62.472 60.792 65.672 57.848C68.872 54.872 72.552 52.568 76.712 50.936C80.904 49.304 85.336 48.488 90.008 48.488C95 48.488 99.336 49.144 103.016 50.456C106.696 51.768 109.304 53.064 110.84 54.344L102.92 70.088C101.768 69.384 100.136 68.68 98.024 67.976C95.944 67.272 93.784 66.92 91.544 66.92C88.504 66.92 85.96 67.352 83.912 68.216C81.864 69.08 80.216 70.232 78.968 71.672C77.752 73.08 76.872 74.632 76.328 76.328C75.816 77.992 75.56 79.64 75.56 81.272C75.56 82.936 75.816 84.616 76.328 86.312C76.872 88.008 77.752 89.576 78.968 91.016C80.216 92.424 81.864 93.56 83.912 94.424C85.96 95.288 88.504 95.72 91.544 95.72ZM140.391 114.152C135.911 114.152 131.927 113.288 128.439 111.56C124.951 109.8 122.215 107.368 120.231 104.264C118.247 101.128 117.255 97.512 117.255 93.416C117.255 89.32 118.247 85.704 120.231 82.568C122.215 79.4 124.951 76.92 128.439 75.128C131.927 73.336 135.911 72.44 140.391 72.44C144.871 72.44 148.823 73.336 152.247 75.128C155.671 76.92 158.343 79.4 160.263 82.568C162.215 85.704 163.191 89.32 163.191 93.416C163.191 97.512 162.215 101.128 160.263 104.264C158.343 107.368 155.671 109.8 152.247 111.56C148.823 113.288 144.871 114.152 140.391 114.152ZM140.391 98.792C141.447 98.792 142.343 98.584 143.079 98.168C143.815 97.72 144.375 97.08 144.759 96.248C145.175 95.416 145.383 94.44 145.383 93.32C145.383 92.2 145.175 91.224 144.759 90.392C144.375 89.56 143.815 88.92 143.079 88.472C142.343 88.024 141.447 87.8 140.391 87.8C139.335 87.8 138.423 88.024 137.655 88.472C136.919 88.92 136.343 89.56 135.927 90.392C135.511 91.224 135.303 92.2 135.303 93.32C135.303 94.44 135.511 95.416 135.927 96.248C136.343 97.08 136.919 97.72 137.655 98.168C138.423 98.584 139.335 98.792 140.391 98.792ZM200.186 72.44C203.098 72.44 205.914 73.016 208.634 74.168C211.386 75.288 213.642 77.096 215.402 79.592C217.194 82.056 218.09 85.304 218.09 89.336V113H199.178V92.264C199.178 90.216 198.666 88.6 197.642 87.416C196.65 86.2 195.306 85.592 193.61 85.592C192.49 85.592 191.45 85.864 190.49 86.408C189.562 86.952 188.826 87.72 188.282 88.712C187.738 89.704 187.466 90.888 187.466 92.264V113H168.554V73.592H187.466V78.536C187.882 77.512 188.698 76.536 189.914 75.608C191.13 74.68 192.634 73.928 194.426 73.352C196.218 72.744 198.138 72.44 200.186 72.44ZM255.499 72.44C258.411 72.44 261.227 73.016 263.947 74.168C266.699 75.288 268.955 77.096 270.715 79.592C272.507 82.056 273.403 85.304 273.403 89.336V113H254.491V92.264C254.491 90.216 253.979 88.6 252.955 87.416C251.963 86.2 250.619 85.592 248.923 85.592C247.803 85.592 246.763 85.864 245.802 86.408C244.875 86.952 244.139 87.72 243.595 88.712C243.051 89.704 242.779 90.888 242.779 92.264V113H223.867V73.592H242.779V78.536C243.195 77.512 244.011 76.536 245.227 75.608C246.443 74.68 247.947 73.928 249.739 73.352C251.531 72.744 253.451 72.44 255.499 72.44ZM296.315 97.016C296.475 97.784 296.875 98.44 297.515 98.984C298.187 99.496 299.035 99.896 300.059 100.184C301.115 100.472 302.299 100.616 303.611 100.616C305.019 100.616 306.395 100.552 307.739 100.424C309.083 100.296 310.315 100.088 311.435 99.8C312.555 99.512 313.451 99.144 314.123 98.696L320.891 110.552C320.283 110.936 319.275 111.416 317.867 111.992C316.491 112.536 314.539 113.032 312.011 113.48C309.515 113.928 306.283 114.152 302.315 114.152C297.867 114.152 293.835 113.4 290.219 111.896C286.603 110.392 283.723 108.072 281.579 104.936C279.467 101.768 278.411 97.752 278.411 92.888C278.411 89.048 279.291 85.592 281.051 82.52C282.811 79.416 285.355 76.968 288.683 75.176C292.011 73.352 296.043 72.44 300.779 72.44C305.355 72.44 309.307 73.208 312.635 74.744C315.995 76.28 318.571 78.648 320.363 81.848C322.187 85.016 323.099 89.08 323.099 94.04C323.099 94.296 323.083 94.808 323.051 95.576C323.051 96.312 323.019 96.792 322.955 97.016H296.315ZM305.291 89.288C305.259 88.232 305.051 87.352 304.667 86.648C304.315 85.944 303.835 85.432 303.227 85.112C302.619 84.76 301.899 84.584 301.067 84.584C300.331 84.584 299.627 84.744 298.955 85.064C298.315 85.352 297.787 85.848 297.371 86.552C296.955 87.224 296.731 88.136 296.699 89.288H305.291ZM372.748 78.92L396.988 113H372.652L360.46 94.472L348.988 113H326.572L348.988 78.92L328.588 49.64H352.3L361.228 64.616L370.108 49.64H392.716L372.748 78.92Z" fill="white"/>
<path d="M421 33.5C421 40.4036 415.404 46 408.5 46C401.596 46 396 40.4036 396 33.5C396 26.5964 401.596 21 408.5 21C415.404 21 421 26.5964 421 33.5ZM402.163 33.5C402.163 36.9997 405 39.8367 408.5 39.8367C412 39.8367 414.837 36.9997 414.837 33.5C414.837 30.0003 412 27.1633 408.5 27.1633C405 27.1633 402.163 30.0003 402.163 33.5Z" fill="#ED1C24"/>
<path d="M516 11.5C516 17.8513 510.851 23 504.5 23C498.149 23 493 17.8513 493 11.5C493 5.14873 498.149 0 504.5 0C510.851 0 516 5.14873 516 11.5ZM498.67 11.5C498.67 14.7197 501.28 17.3298 504.5 17.3298C507.72 17.3298 510.33 14.7197 510.33 11.5C510.33 8.28029 507.72 5.6702 504.5 5.6702C501.28 5.6702 498.67 8.28029 498.67 11.5Z" fill="#ED1C24"/>
<path d="M480 58C480 64.6274 474.627 70 468 70C461.373 70 456 64.6274 456 58C456 51.3726 461.373 46 468 46C474.627 46 480 51.3726 480 58ZM461.917 58C461.917 61.3597 464.64 64.0833 468 64.0833C471.36 64.0833 474.083 61.3597 474.083 58C474.083 54.6403 471.36 51.9167 468 51.9167C464.64 51.9167 461.917 54.6403 461.917 58Z" fill="#ED1C24"/>
<path d="M512 84C512 90.6274 506.627 96 500 96C493.373 96 488 90.6274 488 84C488 77.3726 493.373 72 500 72C506.627 72 512 77.3726 512 84ZM493.917 84C493.917 87.3597 496.64 90.0833 500 90.0833C503.36 90.0833 506.083 87.3597 506.083 84C506.083 80.6403 503.36 77.9167 500 77.9167C496.64 77.9167 493.917 80.6403 493.917 84Z" fill="#ED1C24"/>
<path d="M483 113C483 119.627 477.627 125 471 125C464.373 125 459 119.627 459 113C459 106.373 464.373 101 471 101C477.627 101 483 106.373 483 113ZM464.917 113C464.917 116.36 467.64 119.083 471 119.083C474.36 119.083 477.083 116.36 477.083 113C477.083 109.64 474.36 106.917 471 106.917C467.64 106.917 464.917 109.64 464.917 113Z" fill="#ED1C24"/>
<path d="M429 118C429 124.627 423.627 130 417 130C410.373 130 405 124.627 405 118C405 111.373 410.373 106 417 106C423.627 106 429 111.373 429 118ZM410.917 118C410.917 121.36 413.64 124.083 417 124.083C420.36 124.083 423.083 121.36 423.083 118C423.083 114.64 420.36 111.917 417 111.917C413.64 111.917 410.917 114.64 410.917 118Z" fill="#ED1C24"/>
<line x1="415.379" y1="38.783" x2="457.379" y2="56.783" stroke="#ED1C24" stroke-width="7"/>
<line x1="474.121" y1="63.216" x2="495.121" y2="79.216" stroke="#ED1C24" stroke-width="7"/>
<line x1="507.736" y1="84.9611" x2="521.737" y2="92.9612" stroke="#ED1C24" stroke-width="7"/>
<line x1="416.865" y1="39.99" x2="463.865" y2="106.99" stroke="#ED1C24" stroke-width="7"/>
<line x1="498.79" y1="17.1135" x2="473.79" y2="50.1135" stroke="#ED1C24" stroke-width="7"/>
<line x1="508.375" y1="20.0726" x2="527.313" y2="88.9935" stroke="#ED1C24" stroke-width="7"/>
<line x1="528.525" y1="52.4239" x2="504.525" y2="77.4239" stroke="#ED1C24" stroke-width="7"/>
<line x1="492.569" y1="90.3768" x2="476.714" y2="107.515" stroke="#ED1C24" stroke-width="7"/>
<line x1="463.697" y1="64.2311" x2="424.697" y2="111.369" stroke="#ED1C24" stroke-width="7"/>
<line x1="532.513" y1="87.7011" x2="535.513" y2="52.7011" stroke="#ED1C24" stroke-width="7"/>
</svg>
