<svg xmlns:dc="http://purl.org/dc/elements/1.1/" xmlns:cc="http://creativecommons.org/ns#" xmlns:rdf="http://www.w3.org/1999/02/22-rdf-syntax-ns#" xmlns:svg="http://www.w3.org/2000/svg" xmlns="http://www.w3.org/2000/svg" xmlns:sodipodi="http://sodipodi.sourceforge.net/DTD/sodipodi-0.dtd" xmlns:inkscape="http://www.inkscape.org/namespaces/inkscape" fill="#000000" version="1.1" x="0px" y="0px" viewBox="0 0 100 125"><path style="font-size:medium;font-style:normal;font-variant:normal;font-weight:normal;font-stretch:normal;text-indent:0;text-align:start;text-decoration:none;line-height:normal;letter-spacing:normal;word-spacing:normal;text-transform:none;direction:ltr;block-progression:tb;writing-mode:lr-tb;text-anchor:start;baseline-shift:baseline;opacity:1;color:#000000;fill:#000000;fill-opacity:1;stroke:none;stroke-width:6;marker:none;visibility:visible;display:inline;overflow:visible;enable-background:accumulate;font-family:Sans;-inkscape-font-specification:Sans" d="M 49.875 5 A 3.0003 3.0003 0 0 0 48.9375 5.1875 L 16.9375 17.1875 A 3.0003 3.0003 0 0 0 16.9375 22.8125 L 33.3125 28.9375 C 33.128766 29.925644 33 30.953482 33 32 C 33 38.080796 36.230736 43.431554 41.0625 46.4375 C 29.999939 50.075169 22 60.267548 22 72.34375 L 22 88.0625 A 3.0003 3.0003 0 1 0 28 88.0625 L 28 72.34375 C 28 60.51122 37.717776 51 50 51 C 62.282225 51 72 60.508577 72 72.34375 L 72 85.75 C 65.370383 87.759094 57.967476 89 50 89 C 44.976672 89 40.120975 88.557299 35.5625 87.71875 A 3.0005289 3.0005289 0 1 0 34.5 93.625 C 39.425003 94.530973 44.616948 95 50 95 C 59.376018 95 68.216774 93.521642 75.96875 90.90625 A 3.0003 3.0003 0 0 0 78 88.0625 L 78 72.34375 C 78 60.269655 70.000061 50.075763 58.9375 46.4375 C 63.769264 43.431554 67 38.080796 67 32 C 67 30.953482 66.871234 29.925644 66.6875 28.9375 L 83.0625 22.8125 A 3.0003 3.0003 0 0 0 83.0625 17.1875 L 51.0625 5.1875 A 3.0003 3.0003 0 0 0 49.875 5 z M 50 11.21875 L 73.4375 20 L 50 28.78125 L 26.5625 20 L 50 11.21875 z M 39.03125 31.09375 L 48.9375 34.8125 A 3.0003 3.0003 0 0 0 51.0625 34.8125 L 60.96875 31.09375 C 60.994679 31.391887 61 31.694036 61 32 C 61 38.110667 56.104206 43 50 43 C 43.895795 43 39 38.110667 39 32 C 39 31.694036 39.005321 31.391887 39.03125 31.09375 z "/></svg>