<svg width="194" height="194" viewBox="0 0 194 194" fill="none" xmlns="http://www.w3.org/2000/svg">
<circle cx="97" cy="97" r="97" fill="white"/>
<path d="M172 76C172 82.6274 166.627 88 160 88C153.373 88 148 82.6274 148 76C148 69.3726 153.373 64 160 64C166.627 64 172 69.3726 172 76ZM153.917 76C153.917 79.3597 156.64 82.0833 160 82.0833C163.36 82.0833 166.083 79.3597 166.083 76C166.083 72.6403 163.36 69.9167 160 69.9167C156.64 69.9167 153.917 72.6403 153.917 76Z" fill="#ED1C24"/>
<path d="M170 127C170 133.627 164.627 139 158 139C151.373 139 146 133.627 146 127C146 120.373 151.373 115 158 115C164.627 115 170 120.373 170 127ZM151.917 127C151.917 130.36 154.64 133.083 158 133.083C161.36 133.083 164.083 130.36 164.083 127C164.083 123.64 161.36 120.917 158 120.917C154.64 120.917 151.917 123.64 151.917 127Z" fill="#ED1C24"/>
<path d="M47 65.5C47 72.4036 41.4036 78 34.5 78C27.5964 78 22 72.4036 22 65.5C22 58.5964 27.5964 53 34.5 53C41.4036 53 47 58.5964 47 65.5ZM28.1633 65.5C28.1633 68.9997 31.0003 71.8367 34.5 71.8367C37.9997 71.8367 40.8367 68.9997 40.8367 65.5C40.8367 62.0003 37.9997 59.1633 34.5 59.1633C31.0003 59.1633 28.1633 62.0003 28.1633 65.5Z" fill="#ED1C24"/>
<path d="M142 43.5C142 49.8513 136.851 55 130.5 55C124.149 55 119 49.8513 119 43.5C119 37.1487 124.149 32 130.5 32C136.851 32 142 37.1487 142 43.5ZM124.67 43.5C124.67 46.7197 127.28 49.3298 130.5 49.3298C133.72 49.3298 136.33 46.7197 136.33 43.5C136.33 40.2803 133.72 37.6702 130.5 37.6702C127.28 37.6702 124.67 40.2803 124.67 43.5Z" fill="#ED1C24"/>
<path d="M106 90C106 96.6274 100.627 102 94 102C87.3726 102 82 96.6274 82 90C82 83.3726 87.3726 78 94 78C100.627 78 106 83.3726 106 90ZM87.9167 90C87.9167 93.3597 90.6403 96.0833 94 96.0833C97.3597 96.0833 100.083 93.3597 100.083 90C100.083 86.6403 97.3597 83.9167 94 83.9167C90.6403 83.9167 87.9167 86.6403 87.9167 90Z" fill="#ED1C24"/>
<path d="M138 116C138 122.627 132.627 128 126 128C119.373 128 114 122.627 114 116C114 109.373 119.373 104 126 104C132.627 104 138 109.373 138 116ZM119.917 116C119.917 119.36 122.64 122.083 126 122.083C129.36 122.083 132.083 119.36 132.083 116C132.083 112.64 129.36 109.917 126 109.917C122.64 109.917 119.917 112.64 119.917 116Z" fill="#ED1C24"/>
<path d="M109 145C109 151.627 103.627 157 97 157C90.3726 157 85 151.627 85 145C85 138.373 90.3726 133 97 133C103.627 133 109 138.373 109 145ZM90.9167 145C90.9167 148.36 93.6403 151.083 97 151.083C100.36 151.083 103.083 148.36 103.083 145C103.083 141.64 100.36 138.917 97 138.917C93.6403 138.917 90.9167 141.64 90.9167 145Z" fill="#ED1C24"/>
<path d="M55 150C55 156.627 49.6274 162 43 162C36.3726 162 31 156.627 31 150C31 143.373 36.3726 138 43 138C49.6274 138 55 143.373 55 150ZM36.9167 150C36.9167 153.36 39.6403 156.083 43 156.083C46.3597 156.083 49.0833 153.36 49.0833 150C49.0833 146.64 46.3597 143.917 43 143.917C39.6403 143.917 36.9167 146.64 36.9167 150Z" fill="#ED1C24"/>
<line x1="41.3787" y1="70.783" x2="83.3787" y2="88.783" stroke="#ED1C24" stroke-width="7"/>
<line x1="100.121" y1="95.216" x2="121.121" y2="111.216" stroke="#ED1C24" stroke-width="7"/>
<line x1="133.736" y1="116.961" x2="147.736" y2="124.961" stroke="#ED1C24" stroke-width="7"/>
<line x1="42.8653" y1="71.99" x2="89.8653" y2="138.99" stroke="#ED1C24" stroke-width="7"/>
<line x1="124.79" y1="49.1135" x2="99.7898" y2="82.1135" stroke="#ED1C24" stroke-width="7"/>
<line x1="134.375" y1="52.0726" x2="153.313" y2="120.994" stroke="#ED1C24" stroke-width="7"/>
<line x1="154.525" y1="84.4239" x2="130.525" y2="109.424" stroke="#ED1C24" stroke-width="7"/>
<line x1="118.569" y1="122.377" x2="102.714" y2="139.515" stroke="#ED1C24" stroke-width="7"/>
<line x1="89.6967" y1="96.2311" x2="50.6967" y2="143.369" stroke="#ED1C24" stroke-width="7"/>
<line x1="158.513" y1="119.701" x2="161.513" y2="84.7011" stroke="#ED1C24" stroke-width="7"/>
</svg>
